<?xml version="1.0" standalone="no"?>
<!DOCTYPE svg PUBLIC "-//W3C//DTD SVG 20010904//EN"
 "http://www.w3.org/TR/2001/REC-SVG-20010904/DTD/svg10.dtd">
<svg version="1.0" xmlns="http://www.w3.org/2000/svg"
 width="800.000000pt" height="800.000000pt" viewBox="0 0 800.000000 800.000000"
 preserveAspectRatio="xMidYMid meet">
<metadata>
Created by potrace 1.16, written by Peter Selinger 2001-2019
</metadata>
<g transform="translate(0.000000,800.000000) scale(0.100000,-0.100000)"
fill="#000000" stroke="none">
<path d="M392 7900 c-138 -19 -258 -107 -320 -234 -43 -87 -56 -154 -48 -243
12 -152 90 -310 251 -513 133 -167 308 -406 350 -477 25 -43 55 -109 66 -148
87 -291 207 -632 288 -817 101 -232 236 -453 326 -538 21 -19 45 -52 55 -72
16 -37 16 -38 -12 -97 -16 -33 -41 -118 -57 -188 -16 -70 -40 -167 -54 -215
-30 -101 -49 -191 -73 -343 -26 -167 -24 -526 5 -708 64 -417 206 -737 413
-933 90 -84 153 -116 244 -122 106 -7 173 16 239 81 70 71 91 131 125 357 24
157 44 276 66 378 2 12 8 22 12 22 5 0 61 -108 126 -239 82 -167 137 -265 180
-323 143 -189 326 -373 561 -564 66 -53 172 -148 235 -209 76 -74 135 -122
170 -139 l55 -27 -47 43 c-25 24 -71 66 -101 93 -250 227 -664 851 -923 1390
-91 192 -198 443 -219 520 -20 69 -51 110 -65 85 -4 -8 -50 -67 -101 -130
-171 -212 -228 -386 -275 -844 -17 -173 -25 -206 -49 -206 -29 0 -97 41 -140
86 -72 73 -180 314 -228 509 -49 194 -62 311 -62 575 0 313 28 498 106 705 66
171 119 350 125 415 9 95 -18 152 -129 267 -165 171 -270 373 -389 743 -103
321 -160 484 -205 588 -66 150 -176 312 -471 695 -73 94 -137 220 -154 299
-10 50 -9 58 14 109 24 52 29 57 86 78 49 19 71 22 114 16 65 -9 182 -50 337
-117 245 -107 376 -183 507 -294 114 -99 131 -106 244 -115 545 -41 504 -36
633 -80 661 -225 1397 -779 1919 -1445 236 -302 474 -697 563 -939 44 -118
172 -406 280 -630 42 -88 124 -265 181 -394 223 -496 341 -694 451 -754 28
-15 145 -58 260 -96 290 -97 425 -146 518 -190 85 -40 266 -156 493 -318 75
-54 182 -126 237 -161 154 -98 245 -179 245 -219 0 -6 -83 -12 -237 -16 -341
-8 -488 -34 -817 -147 -178 -61 -182 -62 -202 -101 -12 -25 -13 -33 -2 -46 7
-8 27 -48 44 -89 75 -171 206 -321 424 -483 205 -153 292 -204 561 -331 124
-59 268 -134 321 -167 128 -81 350 -244 418 -308 55 -52 98 -85 112 -85 3 0
-11 39 -33 87 -34 76 -51 99 -123 168 -45 44 -111 116 -147 160 -88 112 -276
295 -400 391 -57 45 -178 126 -269 179 -212 126 -302 189 -371 262 -50 52 -96
120 -87 128 2 2 41 11 88 20 47 9 139 32 205 51 65 19 187 43 270 54 82 11
186 25 230 31 44 6 145 29 225 52 123 36 145 45 148 63 5 34 -219 307 -325
396 -439 371 -837 641 -1133 768 -41 18 -133 58 -205 90 -71 31 -152 65 -179
75 -26 10 -62 30 -80 45 -36 32 -113 157 -157 257 -17 37 -93 195 -169 349
-161 326 -324 686 -452 999 -109 267 -139 327 -271 532 -503 781 -1060 1313
-1902 1818 -209 125 -340 176 -633 244 -146 35 -193 41 -372 51 -234 12 -216
6 -357 127 -120 104 -344 229 -553 310 -203 79 -390 111 -528 93z"/>
<path d="M1688 6556 c-37 -6 -70 -14 -72 -17 -3 -3 25 -42 62 -88 109 -134
126 -161 177 -271 27 -58 53 -109 57 -114 12 -15 74 51 96 103 11 25 23 71 27
102 7 53 5 59 -37 129 -33 57 -58 85 -108 121 -72 53 -88 55 -202 35z"/>
</g>
</svg>
